HIERARCHY
ROOT Hips
{
	OFFSET -218.283997 91.576897 -173.547501
	CHANNELS 6 Xposition Yposition Zposition Zrotation Yrotation Xrotation 
	JOINT LeftUpLeg
	{
		OFFSET 0.103458 1.857835 10.548497
		CHANNELS 3 Zrotation Yrotation Xrotation
		JOINT LeftLeg
		{
			OFFSET 43.500000 -0.000034 -0.000013
			CHANNELS 3 Zrotation Yrotation Xrotation
			JOINT LeftFoot
			{
				OFFSET 42.372192 0.000011 0.000010
				CHANNELS 3 Zrotation Yrotation Xrotation
				JOINT LeftToe
				{
					OFFSET 17.299994 -0.000002 -0.000009
					CHANNELS 3 Zrotation Yrotation Xrotation
					End Site
					{
						OFFSET 0.000000 0.000000 0.000000
					}
				}
			}
		}
	}
	JOINT RightUpLeg
	{
		OFFSET 0.103456 1.857832 -10.548508
		CHANNELS 3 Zrotation Yrotation Xrotation
		JOINT RightLeg
		{
			OFFSET 43.500038 -0.000027 0.000004
			CHANNELS 3 Zrotation Yrotation Xrotation
			JOINT RightFoot
			{
				OFFSET 42.372261 -0.000011 0.000014
				CHANNELS 3 Zrotation Yrotation Xrotation
				JOINT RightToe
				{
					OFFSET 17.299995 -0.000004 0.000011
					CHANNELS 3 Zrotation Yrotation Xrotation
					End Site
					{
						OFFSET 0.000000 0.000000 0.000000
					}
				}
			}
		}
	}
	JOINT Spine
	{
		OFFSET 6.901970 -2.603727 -0.000002
		CHANNELS 3 Zrotation Yrotation Xrotation
		JOINT Spine1
		{
			OFFSET 12.588097 -0.000001 0.000008
			CHANNELS 3 Zrotation Yrotation Xrotation
			JOINT Spine2
			{
				OFFSET 12.343203 0.000000 -0.000005
				CHANNELS 3 Zrotation Yrotation Xrotation
				JOINT Neck
				{
					OFFSET 25.832903 -0.000002 -0.000005
					CHANNELS 3 Zrotation Yrotation Xrotation
					JOINT Head
					{
						OFFSET 11.766603 0.000011 -0.000000
						CHANNELS 3 Zrotation Yrotation Xrotation
						End Site
						{
							OFFSET 0.000000 0.000000 0.000000
						}
					}
				}
				JOINT LeftShoulder
				{
					OFFSET 19.745899 -1.480377 6.000100
					CHANNELS 3 Zrotation Yrotation Xrotation
					JOINT LeftArm
					{
						OFFSET 11.284134 -0.000021 -0.000017
						CHANNELS 3 Zrotation Yrotation Xrotation
						JOINT LeftForeArm
						{
							OFFSET 33.000053 0.000002 0.000032
							CHANNELS 3 Zrotation Yrotation Xrotation
							JOINT LeftHand
							{
								OFFSET 25.200005 0.000020 0.000008
								CHANNELS 3 Zrotation Yrotation Xrotation
								End Site
								{
									OFFSET 0.000000 0.000000 0.000000
								}
							}
						}
					}
				}
				JOINT RightShoulder
				{
					OFFSET 19.746092 -1.480377 -6.000073
					CHANNELS 3 Zrotation Yrotation Xrotation
					JOINT RightArm
					{
						OFFSET 11.284133 -0.000016 -0.000019
						CHANNELS 3 Zrotation Yrotation Xrotation
						JOINT RightForeArm
						{
							OFFSET 33.000092 0.000022 0.000006
							CHANNELS 3 Zrotation Yrotation Xrotation
							JOINT RightHand
							{
								OFFSET 25.199783 0.000138 0.000434
								CHANNELS 3 Zrotation Yrotation Xrotation
								End Site
								{
									OFFSET 0.000000 0.000000 0.000000
								}
							}
						}
					}
				}
			}
		}
	}
}
MOTION
Frames: 5
Frame Time: 0.033333
-218.283997 91.576897 173.547501 90.330181 -6.091078 -88.358899 -175.706767 -3.72591 -175.572362 -13.481628 -1.751232 -2.281014 83.616713 1.010644 -2.963482 21.454555 0.003095 1.6e-05 -171.744219 3.320099 179.939039 -7.647951 2.879483 5.197419 82.396916 -3.08672 2.641828 21.454548 -0.003093 1e-06 6.067346 0.132133 -0.086289 2.119462 0.276134 -0.136285 1.801374 0.27497 -0.137968 17.623751 -1.180306 -1.01064 -15.684423 1.090759 -1.458318 -154.391795 -87.939772 -27.340289 -2.758889 -1.979565 -4.423162 -15.772934 -18.014942 1.243574 16.54149 -3.713585 2.679725 -83.545002 80.397146 99.101735 -12.49525 6.325788 0.556429 -8.094166 12.500572 -0.842203 14.936702 -2.79999 -4.391847 
-218.287704 91.576859 173.552094 90.330167 -6.091079 -88.351086 -175.709594 -3.723009 -175.565696 -13.481252 -1.751222 -2.281 83.616726 1.010638 -2.963485 21.45456 0.00312 1.8e-05 -171.747374 3.323506 179.933124 -7.652488 2.881269 5.205116 82.396923 -3.091639 2.643833 21.45455 -0.003089 0.0 6.067334 0.132133 -0.086282 2.121692 0.276123 -0.136283 1.803571 0.274977 -0.13798 17.634707 -1.188732 -1.035239 -15.695259 1.097814 -1.486937 -154.432654 -87.936828 -27.299452 -2.767846 -1.981976 -4.362805 -15.772929 -18.021995 1.24356 16.532278 -3.701068 2.638519 -83.549845 80.395916 99.096961 -12.483961 6.318579 0.558874 -8.101264 12.5033 -0.842196 14.92877 -2.803592 -4.391831 
-218.307602 91.576218 173.579193 90.330174 -6.091076 -88.303862 -175.735003 -3.708096 -175.534318 -13.493238 -1.756084 -2.273022 83.616713 1.00549 -2.961295 21.454557 0.003111 1.8e-05 -171.771594 3.340103 179.924245 -7.685996 2.889158 5.236018 82.396923 -3.111081 2.653771 21.454548 -0.003094 0.0 6.073346 0.132138 -0.086288 2.133706 0.276131 -0.136285 1.815607 0.274978 -0.137972 17.692808 -1.251798 -1.153761 -15.756099 1.14475 -1.629475 -154.47526 -87.926699 -27.256918 -2.84007 -1.963914 -4.253502 -15.772929 -18.06215 1.243568 16.523501 -3.67826 2.54753 -83.578245 80.383888 99.069483 -12.448679 6.281939 0.575694 -8.132037 12.52164 -0.842203 14.86222 -2.852589 -4.384522 
-218.327805 91.575783 173.606201 90.330174 -6.091076 -88.275407 -175.758744 -3.698496 -175.526832 -13.509085 -1.762319 -2.260239 83.616719 0.998956 -2.9504 21.454558 0.003107 1.6e-05 -171.796661 3.351705 179.909915 -7.721457 2.892137 5.259981 82.396923 -3.125693 2.663891 21.454551 -0.003091 -1e-06 6.081146 0.132141 -0.08629 2.1493 0.276137 -0.136292 1.831199 0.27497 -0.137969 17.749047 -1.334725 -1.247893 -15.825347 1.214349 -1.754345 -154.428719 -87.913994 -27.303584 -2.917362 -1.924623 -4.31997 -15.767913 -18.10933 1.243572 16.558759 -3.707787 2.570777 -83.554394 80.379305 99.093996 -12.427072 6.241502 0.588594 -8.163014 12.542684 -0.842186 14.817791 -2.949766 -4.441273 
-218.349106 91.575653 173.633408 90.330174 -6.091078 -88.260066 -175.78306 -3.690793 -175.526518 -13.52651 -1.770415 -2.249769 83.616726 0.994262 -2.938342 21.454558 0.003113 1.8e-05 -171.821974 3.361998 179.902101 -7.752675 2.892315 5.273502 82.396923 -3.133209 2.673204 21.454551 -0.003089 0.0 6.089516 0.132139 -0.086287 2.16602 0.276134 -0.13629 1.847923 0.27497 -0.137963 17.785835 -1.398711 -1.305371 -15.8729 1.267367 -1.834384 -154.861781 -87.906133 -26.869355 -2.940069 -1.885694 -4.411219 -15.787736 -18.158893 1.243548 16.619635 -3.75968 2.638442 -83.441791 80.384585 99.206633 -12.420989 6.197936 0.515036 -8.165284 12.578422 -0.842205 14.794719 -3.107321 -4.458599 
